<?xml version="1.0" encoding="UTF-8"?>
<svg xmlns="http://www.w3.org/2000/svg" xmlns:xlink="http://www.w3.org/1999/xlink" width="37.5pt" height="37.499999pt" viewBox="0 0 37.5 37.499999" version="1.2">
<defs>
<clipPath id="clip1">
  <path d="M 0 0 L 37.007812 0 L 37.007812 37.007812 L 0 37.007812 Z M 0 0 "/>
</clipPath>
<clipPath id="clip2">
  <path d="M 37.484375 24.5 L 37.484375 0 L 0 0 L 0 37.484375 L 24.5 37.484375 Z M 37.484375 24.5 "/>
</clipPath>
<clipPath id="clip3">
  <path d="M 37.484375 24.5 L 37.484375 0 L 0 0 L 0 37.484375 L 24.5 37.484375 L 37.484375 24.5 "/>
</clipPath>
<clipPath id="clip4">
  <path d="M 18.742188 -18.742188 L -18.742188 18.742188 L 18.742188 56.222656 L 56.222656 18.742188 Z M 18.742188 -18.742188 "/>
</clipPath>
<linearGradient id="linear0" gradientUnits="userSpaceOnUse" x1="-0.11869" y1="0" x2="1.139229" y2="0" gradientTransform="matrix(29.418879,29.418879,-29.418879,29.418879,3.475758,3.50769)">
<stop offset="0" style="stop-color:rgb(92.498779%,92.498779%,92.498779%);stop-opacity:1;"/>
<stop offset="0.25" style="stop-color:rgb(92.498779%,92.498779%,92.498779%);stop-opacity:1;"/>
<stop offset="0.3125" style="stop-color:rgb(92.498779%,92.498779%,92.372131%);stop-opacity:1;"/>
<stop offset="0.375" style="stop-color:rgb(92.349243%,92.398071%,92.088318%);stop-opacity:1;"/>
<stop offset="0.390625" style="stop-color:rgb(92.071533%,92.248535%,91.737366%);stop-opacity:1;"/>
<stop offset="0.398437" style="stop-color:rgb(91.871643%,92.146301%,91.471863%);stop-opacity:1;"/>
<stop offset="0.40625" style="stop-color:rgb(91.734314%,91.946411%,91.334534%);stop-opacity:1;"/>
<stop offset="0.421875" style="stop-color:rgb(91.534424%,91.674805%,91.134644%);stop-opacity:1;"/>
<stop offset="0.4375" style="stop-color:rgb(91.281128%,91.355896%,90.881348%);stop-opacity:1;"/>
<stop offset="0.445312" style="stop-color:rgb(91.081238%,91.081238%,90.666199%);stop-opacity:1;"/>
<stop offset="0.453125" style="stop-color:rgb(90.99884%,90.99884%,90.464783%);stop-opacity:1;"/>
<stop offset="0.460937" style="stop-color:rgb(90.959167%,90.959167%,90.280151%);stop-opacity:1;"/>
<stop offset="0.46875" style="stop-color:rgb(90.727234%,90.759277%,90.167236%);stop-opacity:1;"/>
<stop offset="0.476562" style="stop-color:rgb(90.367126%,90.57312%,89.967346%);stop-opacity:1;"/>
<stop offset="0.484375" style="stop-color:rgb(90.177917%,90.353394%,89.778137%);stop-opacity:1;"/>
<stop offset="0.488281" style="stop-color:rgb(89.959717%,89.959717%,89.559937%);stop-opacity:1;"/>
<stop offset="0.492187" style="stop-color:rgb(89.762878%,89.762878%,89.363098%);stop-opacity:1;"/>
<stop offset="0.5" style="stop-color:rgb(89.666748%,89.666748%,89.266968%);stop-opacity:1;"/>
<stop offset="0.515625" style="stop-color:rgb(89.485168%,89.376831%,88.977051%);stop-opacity:1;"/>
<stop offset="0.523438" style="stop-color:rgb(89.38446%,89.077759%,88.676453%);stop-opacity:1;"/>
<stop offset="0.527344" style="stop-color:rgb(88.98468%,88.760376%,88.165283%);stop-opacity:1;"/>
<stop offset="0.53125" style="stop-color:rgb(88.598633%,88.549805%,87.760925%);stop-opacity:1;"/>
<stop offset="0.546875" style="stop-color:rgb(88.587952%,88.363647%,87.619019%);stop-opacity:1;"/>
<stop offset="0.554688" style="stop-color:rgb(88.38501%,87.985229%,87.284851%);stop-opacity:1;"/>
<stop offset="0.5625" style="stop-color:rgb(87.998962%,87.649536%,86.898804%);stop-opacity:1;"/>
<stop offset="0.566406" style="stop-color:rgb(87.652588%,87.123108%,86.323547%);stop-opacity:1;"/>
<stop offset="0.570312" style="stop-color:rgb(87.5%,86.741638%,85.942078%);stop-opacity:1;"/>
<stop offset="0.574219" style="stop-color:rgb(87.29248%,86.712646%,85.913086%);stop-opacity:1;"/>
<stop offset="0.578125" style="stop-color:rgb(87.084961%,86.685181%,85.88562%);stop-opacity:1;"/>
<stop offset="0.585937" style="stop-color:rgb(86.891174%,86.491394%,85.691833%);stop-opacity:1;"/>
<stop offset="0.589844" style="stop-color:rgb(86.312866%,85.913086%,85.299683%);stop-opacity:1;"/>
<stop offset="0.59375" style="stop-color:rgb(85.928345%,85.528564%,85.099792%);stop-opacity:1;"/>
<stop offset="0.597656" style="stop-color:rgb(85.713196%,85.342407%,84.898376%);stop-opacity:1;"/>
<stop offset="0.601562" style="stop-color:rgb(85.499573%,85.15625%,84.698486%);stop-opacity:1;"/>
<stop offset="0.609375" style="stop-color:rgb(85.321045%,85.127258%,84.519958%);stop-opacity:1;"/>
<stop offset="0.613281" style="stop-color:rgb(84.927368%,84.706116%,84.120178%);stop-opacity:1;"/>
<stop offset="0.617188" style="stop-color:rgb(84.713745%,84.313965%,83.898926%);stop-opacity:1;"/>
<stop offset="0.621094" style="stop-color:rgb(84.506226%,84.106445%,83.520508%);stop-opacity:1;"/>
<stop offset="0.625" style="stop-color:rgb(84.298706%,83.898926%,83.14209%);stop-opacity:1;"/>
<stop offset="0.628906" style="stop-color:rgb(83.934021%,83.534241%,82.797241%);stop-opacity:1;"/>
<stop offset="0.632812" style="stop-color:rgb(83.570862%,83.171082%,82.452393%);stop-opacity:1;"/>
<stop offset="0.636719" style="stop-color:rgb(83.184814%,82.93457%,82.275391%);stop-opacity:1;"/>
<stop offset="0.640625" style="stop-color:rgb(82.798767%,82.699585%,82.099915%);stop-opacity:1;"/>
<stop offset="0.648438" style="stop-color:rgb(82.647705%,82.548523%,81.913757%);stop-opacity:1;"/>
<stop offset="0.652344" style="stop-color:rgb(82.086182%,82.037354%,81.30188%);stop-opacity:1;"/>
<stop offset="0.65625" style="stop-color:rgb(81.67572%,81.67572%,80.87616%);stop-opacity:1;"/>
<stop offset="0.660156" style="stop-color:rgb(81.437683%,81.280518%,80.480957%);stop-opacity:1;"/>
<stop offset="0.664063" style="stop-color:rgb(81.199646%,80.885315%,80.085754%);stop-opacity:1;"/>
<stop offset="0.667969" style="stop-color:rgb(80.856323%,80.499268%,79.699707%);stop-opacity:1;"/>
<stop offset="0.671875" style="stop-color:rgb(80.514526%,80.11322%,79.31366%);stop-opacity:1;"/>
<stop offset="0.675781" style="stop-color:rgb(80.128479%,79.727173%,78.927612%);stop-opacity:1;"/>
<stop offset="0.679688" style="stop-color:rgb(79.742432%,79.342651%,78.543091%);stop-opacity:1;"/>
<stop offset="0.683594" style="stop-color:rgb(79.356384%,78.956604%,78.157043%);stop-opacity:1;"/>
<stop offset="0.6875" style="stop-color:rgb(78.971863%,78.570557%,77.770996%);stop-opacity:1;"/>
<stop offset="0.691406" style="stop-color:rgb(78.585815%,78.184509%,77.435303%);stop-opacity:1;"/>
<stop offset="0.695312" style="stop-color:rgb(78.199768%,77.799988%,77.099609%);stop-opacity:1;"/>
<stop offset="0.699219" style="stop-color:rgb(77.796936%,77.41394%,76.663208%);stop-opacity:1;"/>
<stop offset="0.703125" style="stop-color:rgb(77.39563%,77.027893%,76.228333%);stop-opacity:1;"/>
<stop offset="0.707031" style="stop-color:rgb(77.026367%,76.641846%,76.042175%);stop-opacity:1;"/>
<stop offset="0.710937" style="stop-color:rgb(76.657104%,76.257324%,75.857544%);stop-opacity:1;"/>
<stop offset="0.714844" style="stop-color:rgb(76.271057%,75.871277%,75.364685%);stop-opacity:1;"/>
<stop offset="0.71875" style="stop-color:rgb(75.88501%,75.485229%,74.871826%);stop-opacity:1;"/>
<stop offset="0.722656" style="stop-color:rgb(75.498962%,74.899292%,74.3927%);stop-opacity:1;"/>
<stop offset="0.726562" style="stop-color:rgb(75.114441%,74.31488%,73.913574%);stop-opacity:1;"/>
<stop offset="0.730469" style="stop-color:rgb(74.528503%,73.928833%,73.527527%);stop-opacity:1;"/>
<stop offset="0.734375" style="stop-color:rgb(73.942566%,73.542786%,73.143005%);stop-opacity:1;"/>
<stop offset="0.738281" style="stop-color:rgb(73.506165%,73.106384%,72.735596%);stop-opacity:1;"/>
<stop offset="0.742188" style="stop-color:rgb(73.071289%,72.671509%,72.328186%);stop-opacity:1;"/>
<stop offset="0.746094" style="stop-color:rgb(72.709656%,72.509766%,71.963501%);stop-opacity:1;"/>
<stop offset="0.75" style="stop-color:rgb(72.349548%,72.349548%,71.600342%);stop-opacity:1;"/>
<stop offset="0.753906" style="stop-color:rgb(71.903992%,71.788025%,71.214294%);stop-opacity:1;"/>
<stop offset="0.757812" style="stop-color:rgb(71.458435%,71.228027%,70.828247%);stop-opacity:1;"/>
<stop offset="0.761719" style="stop-color:rgb(70.957947%,70.77179%,70.24231%);stop-opacity:1;"/>
<stop offset="0.765625" style="stop-color:rgb(70.457458%,70.315552%,69.657898%);stop-opacity:1;"/>
<stop offset="0.769531" style="stop-color:rgb(70.014954%,69.799805%,69.215393%);stop-opacity:1;"/>
<stop offset="0.773438" style="stop-color:rgb(69.572449%,69.285583%,68.772888%);stop-opacity:1;"/>
<stop offset="0.777344" style="stop-color:rgb(68.972778%,68.685913%,68.243408%);stop-opacity:1;"/>
<stop offset="0.78125" style="stop-color:rgb(68.373108%,68.086243%,67.713928%);stop-opacity:1;"/>
<stop offset="0.785156" style="stop-color:rgb(67.857361%,67.636108%,67.250061%);stop-opacity:1;"/>
<stop offset="0.789063" style="stop-color:rgb(67.34314%,67.1875%,66.78772%);stop-opacity:1;"/>
<stop offset="0.792969" style="stop-color:rgb(66.757202%,66.679382%,66.279602%);stop-opacity:1;"/>
<stop offset="0.796875" style="stop-color:rgb(66.171265%,66.171265%,65.771484%);stop-opacity:1;"/>
<stop offset="0.800781" style="stop-color:rgb(65.536499%,65.536499%,65.136719%);stop-opacity:1;"/>
<stop offset="0.804688" style="stop-color:rgb(64.901733%,64.901733%,64.501953%);stop-opacity:1;"/>
<stop offset="0.808594" style="stop-color:rgb(64.129639%,64.129639%,63.739014%);stop-opacity:1;"/>
<stop offset="0.8125" style="stop-color:rgb(63.35907%,63.35907%,62.976074%);stop-opacity:1;"/>
<stop offset="0.816406" style="stop-color:rgb(62.637329%,62.837219%,62.445068%);stop-opacity:1;"/>
<stop offset="0.820312" style="stop-color:rgb(61.915588%,62.315369%,61.915588%);stop-opacity:1;"/>
<stop offset="0.824219" style="stop-color:rgb(61.244202%,61.500549%,61.244202%);stop-opacity:1;"/>
<stop offset="0.828125" style="stop-color:rgb(60.572815%,60.68573%,60.572815%);stop-opacity:1;"/>
<stop offset="0.832031" style="stop-color:rgb(60.00061%,60.099792%,60.043335%);stop-opacity:1;"/>
<stop offset="0.835937" style="stop-color:rgb(59.429932%,59.515381%,59.515381%);stop-opacity:1;"/>
<stop offset="0.839844" style="stop-color:rgb(58.857727%,59.100342%,58.929443%);stop-opacity:1;"/>
<stop offset="0.84375" style="stop-color:rgb(58.287048%,58.686829%,58.343506%);stop-opacity:1;"/>
<stop offset="0.847656" style="stop-color:rgb(57.579041%,58.119202%,57.807922%);stop-opacity:1;"/>
<stop offset="0.851562" style="stop-color:rgb(56.872559%,57.551575%,57.272339%);stop-opacity:1;"/>
<stop offset="0.855469" style="stop-color:rgb(56.286621%,56.826782%,56.686401%);stop-opacity:1;"/>
<stop offset="0.859375" style="stop-color:rgb(55.702209%,56.10199%,56.10199%);stop-opacity:1;"/>
<stop offset="0.863281" style="stop-color:rgb(55.030823%,55.430603%,55.430603%);stop-opacity:1;"/>
<stop offset="0.867188" style="stop-color:rgb(54.359436%,54.759216%,54.759216%);stop-opacity:1;"/>
<stop offset="0.871094" style="stop-color:rgb(53.572083%,53.987122%,53.987122%);stop-opacity:1;"/>
<stop offset="0.875" style="stop-color:rgb(52.784729%,53.216553%,53.216553%);stop-opacity:1;"/>
<stop offset="0.878906" style="stop-color:rgb(51.878357%,52.494812%,52.500916%);stop-opacity:1;"/>
<stop offset="0.882812" style="stop-color:rgb(50.973511%,51.773071%,51.786804%);stop-opacity:1;"/>
<stop offset="0.886719" style="stop-color:rgb(50.393677%,51.193237%,51.400757%);stop-opacity:1;"/>
<stop offset="0.890625" style="stop-color:rgb(49.815369%,50.614929%,51.014709%);stop-opacity:1;"/>
<stop offset="0.894531" style="stop-color:rgb(49.806213%,50.40741%,50.80719%);stop-opacity:1;"/>
<stop offset="0.898438" style="stop-color:rgb(49.798584%,50.19989%,50.59967%);stop-opacity:1;"/>
<stop offset="0.90625" style="stop-color:rgb(49.798584%,50.19989%,50.59967%);stop-opacity:1;"/>
<stop offset="0.9375" style="stop-color:rgb(49.798584%,50.19989%,50.59967%);stop-opacity:1;"/>
<stop offset="1" style="stop-color:rgb(49.798584%,50.19989%,50.59967%);stop-opacity:1;"/>
</linearGradient>
<clipPath id="clip5">
  <path d="M 24.511719 24.511719 L 37.007812 24.511719 L 37.007812 37.007812 L 24.511719 37.007812 Z M 24.511719 24.511719 "/>
</clipPath>
<clipPath id="clip6">
  <path d="M 24.515625 37.5 L 25.371094 25.371094 L 37.5 24.515625 Z M 24.515625 37.5 "/>
</clipPath>
<clipPath id="clip7">
  <path d="M 24.515625 37.5 L 25.371094 25.371094 L 37.5 24.515625 L 24.515625 37.5 "/>
</clipPath>
<clipPath id="clip8">
  <path d="M 31.007812 18.023438 L 18.023438 31.007812 L 31.007812 43.992188 L 43.992188 31.007812 Z M 31.007812 18.023438 "/>
</clipPath>
<linearGradient id="linear1" gradientUnits="userSpaceOnUse" x1="-0.320152" y1="0" x2="1.918216" y2="0" gradientTransform="matrix(5.580084,5.580084,-6.424231,6.424231,26.302784,26.302759)">
<stop offset="0" style="stop-color:rgb(92.498779%,92.498779%,92.498779%);stop-opacity:1;"/>
<stop offset="0.25" style="stop-color:rgb(92.498779%,92.498779%,92.498779%);stop-opacity:1;"/>
<stop offset="0.28125" style="stop-color:rgb(92.399597%,92.498779%,92.349243%);stop-opacity:1;"/>
<stop offset="0.296875" style="stop-color:rgb(92.250061%,92.456055%,92.14325%);stop-opacity:1;"/>
<stop offset="0.304688" style="stop-color:rgb(92.199707%,92.344666%,91.992188%);stop-opacity:1;"/>
<stop offset="0.3125" style="stop-color:rgb(92.111206%,92.147827%,91.760254%);stop-opacity:1;"/>
<stop offset="0.320313" style="stop-color:rgb(91.835022%,91.911316%,91.435242%);stop-opacity:1;"/>
<stop offset="0.328125" style="stop-color:rgb(91.522217%,91.726685%,91.122437%);stop-opacity:1;"/>
<stop offset="0.332031" style="stop-color:rgb(91.322327%,91.448975%,90.921021%);stop-opacity:1;"/>
<stop offset="0.335938" style="stop-color:rgb(91.246033%,91.246033%,90.844727%);stop-opacity:1;"/>
<stop offset="0.339844" style="stop-color:rgb(91.122437%,91.122437%,90.591431%);stop-opacity:1;"/>
<stop offset="0.34375" style="stop-color:rgb(90.99884%,90.99884%,90.339661%);stop-opacity:1;"/>
<stop offset="0.347656" style="stop-color:rgb(90.693665%,90.893555%,90.164185%);stop-opacity:1;"/>
<stop offset="0.351562" style="stop-color:rgb(90.388489%,90.788269%,89.988708%);stop-opacity:1;"/>
<stop offset="0.355469" style="stop-color:rgb(90.213013%,90.412903%,89.813232%);stop-opacity:1;"/>
<stop offset="0.359375" style="stop-color:rgb(90.037537%,90.037537%,89.637756%);stop-opacity:1;"/>
<stop offset="0.363281" style="stop-color:rgb(89.884949%,89.884949%,89.318848%);stop-opacity:1;"/>
<stop offset="0.367188" style="stop-color:rgb(89.733887%,89.733887%,88.999939%);stop-opacity:1;"/>
<stop offset="0.371094" style="stop-color:rgb(89.56604%,89.524841%,88.957214%);stop-opacity:1;"/>
<stop offset="0.375" style="stop-color:rgb(89.399719%,89.317322%,88.916016%);stop-opacity:1;"/>
<stop offset="0.378906" style="stop-color:rgb(89.34021%,89.099121%,88.699341%);stop-opacity:1;"/>
<stop offset="0.382812" style="stop-color:rgb(89.282227%,88.882446%,88.482666%);stop-opacity:1;"/>
<stop offset="0.386719" style="stop-color:rgb(88.94043%,88.70697%,87.991333%);stop-opacity:1;"/>
<stop offset="0.390625" style="stop-color:rgb(88.598633%,88.531494%,87.5%);stop-opacity:1;"/>
<stop offset="0.394531" style="stop-color:rgb(88.388062%,88.157654%,87.489319%);stop-opacity:1;"/>
<stop offset="0.398438" style="stop-color:rgb(88.179016%,87.783813%,87.480164%);stop-opacity:1;"/>
<stop offset="0.402344" style="stop-color:rgb(87.988281%,87.641907%,87.103271%);stop-opacity:1;"/>
<stop offset="0.40625" style="stop-color:rgb(87.799072%,87.5%,86.727905%);stop-opacity:1;"/>
<stop offset="0.410156" style="stop-color:rgb(87.437439%,86.888123%,86.112976%);stop-opacity:1;"/>
<stop offset="0.414063" style="stop-color:rgb(87.077332%,86.276245%,85.499573%);stop-opacity:1;"/>
<stop offset="0.417969" style="stop-color:rgb(86.700439%,86.087036%,85.31189%);stop-opacity:1;"/>
<stop offset="0.421875" style="stop-color:rgb(86.325073%,85.899353%,85.125732%);stop-opacity:1;"/>
<stop offset="0.425781" style="stop-color:rgb(85.786438%,85.536194%,84.74884%);stop-opacity:1;"/>
<stop offset="0.429688" style="stop-color:rgb(85.247803%,85.173035%,84.373474%);stop-opacity:1;"/>
<stop offset="0.433594" style="stop-color:rgb(85.03418%,84.797668%,83.998108%);stop-opacity:1;"/>
<stop offset="0.4375" style="stop-color:rgb(84.822083%,84.422302%,83.622742%);stop-opacity:1;"/>
<stop offset="0.441406" style="stop-color:rgb(84.132385%,83.84552%,83.1604%);stop-opacity:1;"/>
<stop offset="0.445313" style="stop-color:rgb(83.442688%,83.270264%,82.699585%);stop-opacity:1;"/>
<stop offset="0.449219" style="stop-color:rgb(83.003235%,82.91626%,82.258606%);stop-opacity:1;"/>
<stop offset="0.453125" style="stop-color:rgb(82.563782%,82.563782%,81.819153%);stop-opacity:1;"/>
<stop offset="0.457031" style="stop-color:rgb(81.965637%,81.84967%,81.077576%);stop-opacity:1;"/>
<stop offset="0.460938" style="stop-color:rgb(81.367493%,81.135559%,80.335999%);stop-opacity:1;"/>
<stop offset="0.464844" style="stop-color:rgb(80.79071%,80.474854%,79.78363%);stop-opacity:1;"/>
<stop offset="0.46875" style="stop-color:rgb(80.215454%,79.815674%,79.232788%);stop-opacity:1;"/>
<stop offset="0.472656" style="stop-color:rgb(79.573059%,79.171753%,78.497314%);stop-opacity:1;"/>
<stop offset="0.476563" style="stop-color:rgb(78.930664%,78.529358%,77.763367%);stop-opacity:1;"/>
<stop offset="0.480469" style="stop-color:rgb(78.231812%,77.870178%,77.244568%);stop-opacity:1;"/>
<stop offset="0.484375" style="stop-color:rgb(77.534485%,77.212524%,76.727295%);stop-opacity:1;"/>
<stop offset="0.488281" style="stop-color:rgb(76.979065%,76.417542%,75.975037%);stop-opacity:1;"/>
<stop offset="0.492188" style="stop-color:rgb(76.423645%,75.624084%,75.224304%);stop-opacity:1;"/>
<stop offset="0.496094" style="stop-color:rgb(75.372314%,74.772644%,74.372864%);stop-opacity:1;"/>
<stop offset="0.5" style="stop-color:rgb(74.320984%,73.921204%,73.521423%);stop-opacity:1;"/>
<stop offset="0.503906" style="stop-color:rgb(73.768616%,73.374939%,72.839355%);stop-opacity:1;"/>
<stop offset="0.507813" style="stop-color:rgb(73.217773%,72.828674%,72.158813%);stop-opacity:1;"/>
<stop offset="0.511719" style="stop-color:rgb(72.319031%,72.122192%,71.586609%);stop-opacity:1;"/>
<stop offset="0.515625" style="stop-color:rgb(71.421814%,71.41571%,71.01593%);stop-opacity:1;"/>
<stop offset="0.519531" style="stop-color:rgb(70.495605%,70.463562%,70.063782%);stop-opacity:1;"/>
<stop offset="0.523437" style="stop-color:rgb(69.569397%,69.512939%,69.111633%);stop-opacity:1;"/>
<stop offset="0.527344" style="stop-color:rgb(68.678284%,68.649292%,68.197632%);stop-opacity:1;"/>
<stop offset="0.53125" style="stop-color:rgb(67.78717%,67.78717%,67.28363%);stop-opacity:1;"/>
<stop offset="0.535156" style="stop-color:rgb(66.873169%,66.873169%,66.421509%);stop-opacity:1;"/>
<stop offset="0.539062" style="stop-color:rgb(65.959167%,65.959167%,65.559387%);stop-opacity:1;"/>
<stop offset="0.542969" style="stop-color:rgb(64.532471%,64.532471%,64.282227%);stop-opacity:1;"/>
<stop offset="0.546875" style="stop-color:rgb(63.1073%,63.1073%,63.005066%);stop-opacity:1;"/>
<stop offset="0.550781" style="stop-color:rgb(61.978149%,61.978149%,61.853027%);stop-opacity:1;"/>
<stop offset="0.554687" style="stop-color:rgb(60.850525%,60.850525%,60.700989%);stop-opacity:1;"/>
<stop offset="0.558594" style="stop-color:rgb(59.7229%,59.922791%,59.74884%);stop-opacity:1;"/>
<stop offset="0.5625" style="stop-color:rgb(58.596802%,58.996582%,58.796692%);stop-opacity:1;"/>
<stop offset="0.566406" style="stop-color:rgb(57.519531%,58.010864%,57.818604%);stop-opacity:1;"/>
<stop offset="0.570313" style="stop-color:rgb(56.442261%,57.026672%,56.842041%);stop-opacity:1;"/>
<stop offset="0.574219" style="stop-color:rgb(55.262756%,55.754089%,55.714417%);stop-opacity:1;"/>
<stop offset="0.578125" style="stop-color:rgb(54.083252%,54.483032%,54.586792%);stop-opacity:1;"/>
<stop offset="0.582031" style="stop-color:rgb(52.667236%,53.266907%,53.318787%);stop-opacity:1;"/>
<stop offset="0.585938" style="stop-color:rgb(51.251221%,52.050781%,52.050781%);stop-opacity:1;"/>
<stop offset="0.589844" style="stop-color:rgb(50.524902%,51.124573%,51.324463%);stop-opacity:1;"/>
<stop offset="0.59375" style="stop-color:rgb(49.798584%,50.19989%,50.59967%);stop-opacity:1;"/>
<stop offset="0.625" style="stop-color:rgb(49.798584%,50.19989%,50.59967%);stop-opacity:1;"/>
<stop offset="0.75" style="stop-color:rgb(49.798584%,50.19989%,50.59967%);stop-opacity:1;"/>
<stop offset="1" style="stop-color:rgb(49.798584%,50.19989%,50.59967%);stop-opacity:1;"/>
</linearGradient>
</defs>
<g id="surface1">
<g clip-path="url(#clip1)" clip-rule="nonzero">
<g clip-path="url(#clip2)" clip-rule="nonzero">
<g clip-path="url(#clip3)" clip-rule="nonzero">
<g clip-path="url(#clip4)" clip-rule="nonzero">
<path style=" stroke:none;fill-rule:nonzero;fill:url(#linear0);" d="M 18.503906 -18.503906 L -18.503906 18.503906 L 18.503906 55.511719 L 55.511719 18.503906 Z M 18.503906 -18.503906 "/>
</g>
</g>
</g>
</g>
<path style=" stroke:none;fill-rule:nonzero;fill:rgb(27.449036%,15.689087%,45.489502%);fill-opacity:1;" d="M 36.242188 25.644531 L 36.242188 1.242188 L 1.242188 1.242188 L 1.242188 36.242188 L 25.644531 36.242188 L 36.242188 25.644531 "/>
<path style=" stroke:none;fill-rule:nonzero;fill:rgb(93.328857%,10.978699%,54.899597%);fill-opacity:1;" d="M 10.136719 24.449219 C 10.136719 24.417969 10.132812 24.386719 10.132812 24.359375 C 10.042969 24.382812 9.953125 24.394531 9.863281 24.394531 C 9.59375 24.390625 9.332031 24.296875 9.078125 24.160156 C 8.886719 24.058594 8.695312 23.933594 8.507812 23.800781 C 8.417969 23.855469 8.332031 23.917969 8.253906 23.992188 C 8.011719 24.214844 7.859375 24.519531 7.859375 24.820312 C 7.859375 24.917969 7.875 25.011719 7.90625 25.109375 C 7.949219 25.242188 8.039062 25.347656 8.164062 25.4375 C 8.355469 25.574219 8.636719 25.664062 8.945312 25.71875 C 9.015625 25.730469 9.089844 25.742188 9.160156 25.75 C 9.277344 25.683594 9.386719 25.609375 9.488281 25.535156 C 9.695312 25.371094 9.859375 25.1875 9.96875 25 C 10.078125 24.8125 10.136719 24.621094 10.136719 24.449219 Z M 8.792969 25.917969 C 8.722656 25.902344 8.652344 25.886719 8.589844 25.867188 C 8.382812 25.8125 8.191406 25.730469 8.035156 25.621094 C 7.878906 25.511719 7.753906 25.363281 7.695312 25.179688 C 7.65625 25.0625 7.636719 24.941406 7.636719 24.820312 C 7.636719 24.441406 7.824219 24.085938 8.101562 23.828125 C 8.164062 23.765625 8.234375 23.710938 8.308594 23.660156 C 8.1875 23.578125 8.070312 23.496094 7.953125 23.421875 C 7.769531 23.300781 7.585938 23.191406 7.402344 23.117188 C 7.222656 23.042969 7.042969 22.996094 6.867188 22.996094 C 6.828125 22.996094 6.785156 23 6.746094 23.003906 C 6.410156 23.042969 6.125 23.226562 5.914062 23.492188 C 5.707031 23.753906 5.585938 24.097656 5.585938 24.445312 C 5.585938 24.753906 5.679688 25.066406 5.902344 25.339844 C 6.125 25.609375 6.476562 25.84375 6.996094 25.980469 C 7.277344 26.058594 7.546875 26.089844 7.804688 26.089844 C 8.164062 26.089844 8.496094 26.027344 8.792969 25.917969 Z M 8.746094 23.691406 C 8.773438 23.710938 8.796875 23.726562 8.824219 23.746094 C 9.007812 23.867188 9.1875 23.972656 9.359375 24.046875 C 9.535156 24.125 9.699219 24.167969 9.863281 24.167969 C 9.933594 24.167969 10 24.160156 10.070312 24.144531 C 10.027344 24.054688 9.964844 23.976562 9.878906 23.902344 C 9.644531 23.703125 9.394531 23.621094 9.144531 23.621094 C 9.007812 23.621094 8.875 23.644531 8.746094 23.691406 Z M 11.335938 22.28125 L 11.335938 22.597656 L 11.21875 22.597656 C 11.207031 22.757812 11.1875 22.910156 11.160156 23.058594 C 11.097656 23.414062 10.984375 23.734375 10.765625 23.960938 C 10.628906 24.105469 10.488281 24.207031 10.347656 24.277344 C 10.355469 24.335938 10.363281 24.390625 10.363281 24.449219 C 10.363281 24.671875 10.289062 24.898438 10.164062 25.113281 C 10.019531 25.355469 9.804688 25.585938 9.53125 25.78125 C 9.65625 25.789062 9.78125 25.789062 9.902344 25.789062 C 10.003906 25.789062 10.101562 25.789062 10.195312 25.785156 L 10.054688 26.011719 C 10.007812 26.015625 9.953125 26.015625 9.902344 26.015625 C 9.679688 26.015625 9.441406 26.007812 9.203125 25.980469 C 8.808594 26.1875 8.332031 26.316406 7.804688 26.316406 C 7.527344 26.316406 7.238281 26.28125 6.9375 26.199219 C 6.382812 26.050781 5.988281 25.796875 5.730469 25.480469 C 5.472656 25.167969 5.359375 24.800781 5.359375 24.445312 C 5.359375 24.046875 5.5 23.65625 5.738281 23.351562 C 5.976562 23.050781 6.316406 22.828125 6.71875 22.78125 C 6.765625 22.773438 6.816406 22.773438 6.867188 22.773438 C 7.152344 22.773438 7.425781 22.867188 7.6875 23.003906 C 7.976562 23.152344 8.253906 23.347656 8.523438 23.539062 C 8.714844 23.449219 8.925781 23.394531 9.144531 23.394531 C 9.445312 23.394531 9.753906 23.496094 10.023438 23.730469 C 10.136719 23.828125 10.222656 23.9375 10.277344 24.058594 C 10.382812 24.003906 10.492188 23.921875 10.601562 23.804688 C 10.777344 23.628906 10.878906 23.351562 10.9375 23.015625 C 10.960938 22.886719 10.980469 22.746094 10.992188 22.597656 L 10.878906 22.597656 L 10.878906 22.28125 Z M 28.28125 26.300781 C 28.214844 26.265625 28.144531 26.230469 28.074219 26.199219 C 28.003906 26.230469 27.945312 26.265625 27.894531 26.304688 C 27.695312 26.457031 27.617188 26.648438 27.617188 26.832031 C 27.617188 27.066406 27.753906 27.292969 27.957031 27.386719 C 28.035156 27.421875 28.117188 27.4375 28.199219 27.4375 C 28.351562 27.4375 28.503906 27.378906 28.617188 27.285156 C 28.726562 27.191406 28.792969 27.066406 28.792969 26.933594 C 28.792969 26.84375 28.765625 26.746094 28.683594 26.636719 C 28.605469 26.527344 28.476562 26.414062 28.28125 26.300781 Z M 30.070312 29.355469 C 29.984375 29.324219 29.953125 29.308594 29.878906 29.277344 C 29.625 29.160156 29.445312 29.019531 29.34375 28.855469 C 29.273438 28.75 29.238281 28.628906 29.238281 28.511719 C 29.238281 28.402344 29.269531 28.296875 29.316406 28.195312 C 29.367188 28.097656 29.4375 28 29.527344 27.914062 C 29.699219 27.738281 29.9375 27.589844 30.21875 27.480469 C 30.394531 27.410156 30.546875 27.328125 30.667969 27.238281 C 30.785156 27.148438 30.867188 27.054688 30.914062 26.964844 C 30.945312 26.90625 30.957031 26.851562 30.960938 26.800781 C 30.957031 26.734375 30.9375 26.671875 30.886719 26.601562 C 30.835938 26.535156 30.753906 26.460938 30.628906 26.394531 C 30.382812 26.253906 29.972656 26.132812 29.382812 26.066406 C 29.214844 26.050781 29.066406 26.039062 28.925781 26.039062 C 28.710938 26.039062 28.53125 26.0625 28.375 26.097656 C 28.378906 26.097656 28.386719 26.101562 28.390625 26.105469 C 28.609375 26.230469 28.765625 26.363281 28.867188 26.503906 C 28.96875 26.644531 29.019531 26.792969 29.019531 26.933594 C 29.019531 27.144531 28.914062 27.328125 28.761719 27.457031 C 28.609375 27.585938 28.40625 27.664062 28.199219 27.664062 C 28.085938 27.664062 27.96875 27.640625 27.859375 27.589844 C 27.574219 27.453125 27.394531 27.152344 27.390625 26.832031 C 27.390625 26.582031 27.503906 26.316406 27.757812 26.125 C 27.773438 26.113281 27.789062 26.101562 27.804688 26.09375 C 27.558594 26.007812 27.296875 25.949219 27.03125 25.90625 C 26.585938 25.835938 26.140625 25.816406 25.789062 25.816406 C 25.695312 25.816406 25.605469 25.816406 25.527344 25.820312 C 25.488281 25.75 25.445312 25.660156 25.414062 25.597656 C 25.519531 25.59375 25.644531 25.589844 25.789062 25.589844 C 26.148438 25.589844 26.605469 25.609375 27.066406 25.683594 C 27.410156 25.738281 27.757812 25.824219 28.074219 25.953125 C 28.296875 25.867188 28.578125 25.816406 28.925781 25.816406 C 29.074219 25.816406 29.234375 25.824219 29.40625 25.84375 C 29.863281 25.894531 30.222656 25.976562 30.496094 26.082031 C 30.765625 26.1875 30.953125 26.316406 31.070312 26.46875 C 31.144531 26.570312 31.183594 26.683594 31.183594 26.800781 C 31.183594 26.894531 31.160156 26.984375 31.113281 27.070312 C 31.070312 27.15625 31.007812 27.234375 30.929688 27.3125 C 30.773438 27.460938 30.558594 27.589844 30.300781 27.691406 C 30.109375 27.765625 29.941406 27.859375 29.808594 27.964844 C 29.671875 28.070312 29.574219 28.183594 29.519531 28.296875 C 29.480469 28.371094 29.464844 28.445312 29.464844 28.511719 C 29.464844 28.585938 29.484375 28.660156 29.53125 28.734375 C 29.582031 28.8125 29.65625 28.886719 29.773438 28.960938 C 29.910156 29.054688 30.105469 29.136719 30.359375 29.207031 Z M 23.898438 24.515625 C 23.644531 23.832031 22.320312 23.308594 21.605469 23.308594 L 14.105469 23.308594 C 13.390625 23.308594 12.0625 23.832031 11.808594 24.515625 Z M 24.265625 15.6875 L 23.898438 14.972656 C 23.878906 14.9375 23.84375 14.886719 23.789062 14.820312 C 23.738281 14.753906 23.695312 14.710938 23.667969 14.691406 C 23.628906 14.660156 23.5625 14.628906 23.472656 14.601562 C 23.585938 14.574219 23.671875 14.542969 23.738281 14.503906 C 23.839844 14.441406 23.917969 14.359375 23.976562 14.261719 C 24.035156 14.164062 24.066406 14.046875 24.066406 13.910156 C 24.066406 13.753906 24.027344 13.621094 23.953125 13.511719 C 23.875 13.402344 23.773438 13.328125 23.652344 13.285156 C 23.527344 13.246094 23.347656 13.226562 23.113281 13.226562 L 21.84375 13.226562 L 21.84375 15.6875 L 22.609375 15.6875 L 22.609375 14.6875 L 22.675781 14.6875 C 22.746094 14.6875 22.808594 14.707031 22.863281 14.746094 C 22.902344 14.773438 22.949219 14.835938 23 14.933594 L 23.40625 15.6875 Z M 21.425781 14.4375 C 21.425781 14.042969 21.316406 13.734375 21.09375 13.515625 C 20.871094 13.292969 20.558594 13.183594 20.148438 13.183594 C 19.75 13.183594 19.4375 13.296875 19.214844 13.519531 C 18.988281 13.742188 18.878906 14.054688 18.878906 14.457031 C 18.878906 14.746094 18.933594 14.984375 19.046875 15.175781 C 19.160156 15.367188 19.308594 15.507812 19.488281 15.59375 C 19.671875 15.683594 19.902344 15.726562 20.179688 15.726562 C 20.449219 15.726562 20.679688 15.675781 20.863281 15.574219 C 21.042969 15.472656 21.183594 15.328125 21.28125 15.144531 C 21.378906 14.960938 21.425781 14.726562 21.425781 14.4375 Z M 18.789062 15.6875 L 18.421875 14.972656 C 18.402344 14.9375 18.367188 14.886719 18.3125 14.820312 C 18.261719 14.753906 18.21875 14.710938 18.191406 14.691406 C 18.152344 14.660156 18.085938 14.628906 17.996094 14.601562 C 18.109375 14.574219 18.195312 14.542969 18.261719 14.503906 C 18.363281 14.441406 18.445312 14.359375 18.5 14.261719 C 18.558594 14.164062 18.589844 14.046875 18.589844 13.910156 C 18.589844 13.753906 18.550781 13.621094 18.476562 13.511719 C 18.398438 13.402344 18.296875 13.328125 18.175781 13.285156 C 18.050781 13.246094 17.871094 13.226562 17.636719 13.226562 L 16.371094 13.226562 L 16.371094 15.6875 L 17.132812 15.6875 L 17.132812 14.6875 L 17.199219 14.6875 C 17.269531 14.6875 17.332031 14.707031 17.386719 14.746094 C 17.425781 14.773438 17.472656 14.835938 17.523438 14.933594 L 17.929688 15.6875 Z M 16.117188 15.6875 L 15.746094 14.972656 C 15.730469 14.9375 15.695312 14.886719 15.640625 14.820312 C 15.589844 14.753906 15.546875 14.710938 15.519531 14.691406 C 15.480469 14.660156 15.414062 14.628906 15.320312 14.601562 C 15.433594 14.574219 15.523438 14.542969 15.589844 14.503906 C 15.691406 14.441406 15.769531 14.359375 15.828125 14.261719 C 15.886719 14.164062 15.917969 14.046875 15.917969 13.910156 C 15.917969 13.753906 15.878906 13.621094 15.800781 13.511719 C 15.726562 13.402344 15.625 13.328125 15.5 13.285156 C 15.378906 13.246094 15.199219 13.226562 14.964844 13.226562 L 13.695312 13.226562 L 13.695312 15.6875 L 14.460938 15.6875 L 14.460938 14.6875 L 14.527344 14.6875 C 14.597656 14.6875 14.660156 14.707031 14.714844 14.746094 C 14.753906 14.773438 14.800781 14.835938 14.851562 14.933594 L 15.257812 15.6875 Z M 13.277344 15.128906 L 11.964844 15.128906 L 11.964844 14.644531 L 13.148438 14.644531 L 13.148438 14.140625 L 11.964844 14.140625 L 11.964844 13.75 L 13.242188 13.75 L 13.242188 13.226562 L 11.203125 13.226562 L 11.203125 15.6875 L 13.277344 15.6875 Z M 25.632812 8.480469 L 25.632812 20.257812 C 25.632812 20.589844 25.367188 20.855469 25.039062 20.855469 L 10.691406 20.855469 C 10.363281 20.855469 10.09375 20.589844 10.09375 20.257812 L 10.09375 8.480469 C 10.09375 8.152344 10.363281 7.886719 10.691406 7.886719 L 25.039062 7.886719 C 25.367188 7.886719 25.632812 8.152344 25.632812 8.480469 Z M 23.300781 13.96875 C 23.300781 14.023438 23.285156 14.070312 23.253906 14.113281 C 23.222656 14.152344 23.179688 14.179688 23.128906 14.1875 C 23.03125 14.210938 22.964844 14.222656 22.929688 14.222656 L 22.609375 14.222656 L 22.609375 13.722656 L 22.941406 13.722656 C 23.082031 13.722656 23.175781 13.742188 23.226562 13.785156 C 23.277344 13.828125 23.300781 13.890625 23.300781 13.96875 Z M 15.152344 13.96875 C 15.152344 14.023438 15.136719 14.070312 15.105469 14.113281 C 15.074219 14.152344 15.03125 14.179688 14.980469 14.1875 C 14.882812 14.210938 14.816406 14.222656 14.78125 14.222656 L 14.460938 14.222656 L 14.460938 13.722656 L 14.792969 13.722656 C 14.933594 13.722656 15.027344 13.742188 15.078125 13.785156 C 15.128906 13.828125 15.152344 13.890625 15.152344 13.96875 Z M 17.824219 13.96875 C 17.824219 14.023438 17.808594 14.070312 17.777344 14.113281 C 17.746094 14.152344 17.703125 14.179688 17.65625 14.1875 C 17.554688 14.210938 17.488281 14.222656 17.453125 14.222656 L 17.132812 14.222656 L 17.132812 13.722656 L 17.464844 13.722656 C 17.605469 13.722656 17.699219 13.742188 17.75 13.785156 C 17.800781 13.828125 17.824219 13.890625 17.824219 13.96875 Z M 20.527344 13.917969 C 20.621094 14.027344 20.667969 14.195312 20.667969 14.425781 C 20.667969 14.703125 20.621094 14.894531 20.53125 15 C 20.441406 15.105469 20.316406 15.160156 20.152344 15.160156 C 19.992188 15.160156 19.867188 15.105469 19.777344 14.996094 C 19.683594 14.886719 19.636719 14.710938 19.636719 14.460938 C 19.636719 14.210938 19.683594 14.03125 19.777344 13.921875 C 19.871094 13.8125 19.992188 13.757812 20.144531 13.757812 C 20.304688 13.757812 20.433594 13.8125 20.527344 13.917969 Z M 15.257812 25.949219 L 15.859375 25.949219 L 15.8125 26.34375 L 15.191406 26.34375 Z M 16.300781 27.488281 L 15.746094 27.488281 L 15.804688 27.003906 L 16.339844 27.003906 Z M 14.667969 25.507812 L 15.253906 25.507812 L 15.199219 25.847656 L 14.601562 25.847656 Z M 16.351562 26.902344 L 15.816406 26.902344 L 15.875 26.445312 L 16.386719 26.445312 Z M 17.042969 27.488281 L 16.378906 27.488281 L 16.417969 27.003906 L 17.0625 27.003906 Z M 15.9375 25.949219 L 16.429688 25.949219 L 16.394531 26.34375 L 15.886719 26.34375 Z M 15.332031 25.507812 L 15.914062 25.507812 L 15.871094 25.847656 L 15.273438 25.847656 Z M 12.027344 25.507812 L 12.609375 25.507812 L 12.5 25.847656 L 11.902344 25.847656 Z M 11.398438 25.507812 L 11.949219 25.507812 L 11.824219 25.847656 L 11.257812 25.847656 Z M 12.6875 25.507812 L 13.269531 25.507812 L 13.171875 25.847656 L 12.574219 25.847656 Z M 14.007812 25.507812 L 14.59375 25.507812 L 14.523438 25.847656 L 13.925781 25.847656 Z M 14.578125 25.949219 L 15.179688 25.949219 L 15.117188 26.34375 L 14.496094 26.34375 Z M 13.347656 25.507812 L 13.933594 25.507812 L 13.847656 25.847656 L 13.25 25.847656 Z M 12.542969 25.949219 L 13.144531 25.949219 L 13.03125 26.34375 L 12.414062 26.34375 L 12.457031 26.214844 L 12.453125 26.214844 Z M 13.222656 25.949219 L 13.824219 25.949219 L 13.726562 26.34375 L 13.105469 26.34375 Z M 14.5 25.949219 L 14.421875 26.34375 L 13.800781 26.34375 L 13.898438 25.949219 Z M 15.023438 26.902344 L 14.382812 26.902344 L 14.476562 26.445312 L 15.097656 26.445312 Z M 11.21875 25.949219 L 11.785156 25.949219 L 11.640625 26.34375 L 11.054688 26.34375 Z M 12.382812 26.445312 L 13 26.445312 L 12.867188 26.902344 L 12.230469 26.902344 Z M 14.304688 26.902344 L 13.664062 26.902344 L 13.777344 26.445312 L 14.398438 26.445312 Z M 15.667969 27.488281 L 15.003906 27.488281 L 15.082031 27.003906 L 15.730469 27.003906 Z M 14.183594 27.488281 L 13.515625 27.488281 L 13.636719 27.003906 L 14.285156 27.003906 Z M 14.925781 27.488281 L 14.261719 27.488281 L 14.359375 27.003906 L 15.007812 27.003906 Z M 15.742188 26.902344 L 15.101562 26.902344 L 15.175781 26.445312 L 15.796875 26.445312 Z M 12.035156 27.488281 L 12.195312 27.003906 L 12.839844 27.003906 L 12.699219 27.488281 Z M 13.441406 27.488281 L 12.773438 27.488281 L 12.914062 27.003906 L 13.5625 27.003906 Z M 11.679688 26.445312 L 12.300781 26.445312 L 12.148438 26.902344 L 11.507812 26.902344 Z M 11.863281 25.949219 L 12.464844 25.949219 L 12.335938 26.34375 L 11.714844 26.34375 Z M 23.863281 28.230469 L 24.054688 28.804688 L 11.597656 28.804688 L 11.789062 28.230469 Z M 11.183594 25.847656 L 10.691406 25.847656 L 10.855469 25.507812 L 11.320312 25.507812 Z M 10.976562 26.34375 L 10.453125 26.34375 L 10.644531 25.949219 L 11.140625 25.949219 Z M 13.386719 25.40625 L 13.488281 25.058594 L 14.054688 25.058594 L 13.96875 25.40625 Z M 12.734375 25.40625 L 12.847656 25.058594 L 13.414062 25.058594 L 13.3125 25.40625 Z M 10.746094 26.902344 L 10.183594 26.902344 L 10.402344 26.445312 L 10.933594 26.445312 Z M 11.011719 26.445312 L 11.601562 26.445312 L 11.429688 26.902344 L 10.820312 26.902344 Z M 11.457031 25.40625 L 11.597656 25.058594 L 12.128906 25.058594 L 12.003906 25.40625 Z M 26.464844 28.804688 L 24.132812 28.804688 L 23.941406 28.230469 L 26.1875 28.230469 Z M 10.503906 27.488281 L 9.898438 27.488281 L 10.144531 26.980469 L 10.144531 27.003906 L 10.703125 27.003906 Z M 8.992188 28.972656 L 26.734375 28.972656 L 24.761719 24.925781 L 10.964844 24.925781 L 10.699219 25.476562 L 10.675781 25.476562 L 10.371094 26.144531 Z M 27.191406 29.289062 L 8.539062 29.289062 L 10.792969 24.761719 L 24.9375 24.761719 Z M 11.746094 28.128906 L 9.589844 28.128906 L 9.851562 27.589844 L 10.460938 27.589844 L 10.238281 28.128906 L 10.3125 28.128906 L 10.539062 27.589844 L 11.175781 27.589844 L 10.972656 28.128906 L 11.050781 28.128906 L 11.25 27.589844 L 11.921875 27.589844 L 11.742188 28.128906 Z M 13.585938 26.902344 L 12.945312 26.902344 L 13.078125 26.445312 L 13.699219 26.445312 Z M 11.710938 28.230469 L 11.523438 28.804688 L 9.261719 28.804688 L 9.539062 28.230469 Z M 11.378906 25.40625 L 10.902344 25.40625 L 11.070312 25.058594 L 11.523438 25.058594 Z M 17.785156 25.847656 L 17.1875 25.847656 L 17.203125 25.507812 L 17.785156 25.507812 Z M 17.792969 25.40625 L 17.210938 25.40625 L 17.226562 25.058594 L 17.792969 25.058594 Z M 17.785156 27.488281 L 17.121094 27.488281 L 17.140625 27.003906 L 17.785156 27.003906 Z M 10.78125 27.003906 L 11.394531 27.003906 L 11.210938 27.488281 L 10.578125 27.488281 Z M 14.042969 25.40625 L 14.128906 25.058594 L 14.695312 25.058594 L 14.625 25.40625 Z M 11.957031 27.488281 L 11.289062 27.488281 L 11.46875 27.003906 L 12.117188 27.003906 Z M 17.785156 26.34375 L 17.167969 26.34375 L 17.183594 25.949219 L 17.785156 25.949219 Z M 17.144531 26.902344 L 17.164062 26.445312 L 17.785156 26.445312 L 17.785156 26.902344 Z M 15.277344 25.40625 L 14.699219 25.40625 L 14.769531 25.058594 L 15.335938 25.058594 Z M 15.949219 25.847656 L 15.992188 25.507812 L 16.464844 25.507812 L 16.4375 25.847656 Z M 15.933594 25.40625 L 15.351562 25.40625 L 15.410156 25.058594 L 15.976562 25.058594 Z M 16.480469 25.40625 L 16.007812 25.40625 L 16.050781 25.058594 L 16.511719 25.058594 Z M 17.136719 25.40625 L 16.554688 25.40625 L 16.585938 25.058594 L 17.152344 25.058594 Z M 17.113281 25.847656 L 16.515625 25.847656 L 16.542969 25.507812 L 17.125 25.507812 Z M 12.078125 25.40625 L 12.207031 25.058594 L 12.769531 25.058594 L 12.660156 25.40625 Z M 22.960938 25.507812 L 23.074219 25.847656 L 22.476562 25.847656 L 22.378906 25.507812 Z M 22.78125 26.902344 L 22.648438 26.445312 L 23.273438 26.445312 L 23.425781 26.902344 Z M 20.722656 27.488281 L 20.644531 27.003906 L 21.289062 27.003906 L 21.390625 27.488281 Z M 24.25 25.507812 L 24.390625 25.847656 L 23.824219 25.847656 L 23.699219 25.507812 Z M 23.5 26.902344 L 23.347656 26.445312 L 23.972656 26.445312 L 24.140625 26.902344 Z M 24.433594 25.949219 L 24.597656 26.34375 L 24.011719 26.34375 L 23.863281 25.949219 Z M 23.625 25.507812 L 23.75 25.847656 L 23.152344 25.847656 L 23.039062 25.507812 Z M 19.910156 26.902344 L 19.851562 26.445312 L 20.472656 26.445312 L 20.550781 26.902344 Z M 19.980469 27.488281 L 19.921875 27.003906 L 20.566406 27.003906 L 20.648438 27.488281 Z M 19.347656 27.488281 L 19.308594 27.003906 L 19.84375 27.003906 L 19.90625 27.488281 Z M 20.980469 25.507812 L 21.050781 25.847656 L 20.453125 25.847656 L 20.398438 25.507812 Z M 20.46875 25.949219 L 21.070312 25.949219 L 21.152344 26.34375 L 20.535156 26.34375 Z M 20.390625 25.949219 L 20.457031 26.34375 L 19.839844 26.34375 L 19.789062 25.949219 Z M 21.640625 25.507812 L 21.726562 25.847656 L 21.128906 25.847656 L 21.058594 25.507812 Z M 22.300781 25.507812 L 22.398438 25.847656 L 21.800781 25.847656 L 21.71875 25.507812 Z M 19.300781 26.902344 L 19.261719 26.445312 L 19.773438 26.445312 L 19.832031 26.902344 Z M 18.605469 27.488281 L 18.585938 27.003906 L 19.230469 27.003906 L 19.273438 27.488281 Z M 19.183594 26.445312 L 19.222656 26.902344 L 18.582031 26.902344 L 18.5625 26.445312 Z M 19.253906 26.34375 L 19.222656 25.949219 L 19.714844 25.949219 L 19.761719 26.34375 Z M 25.1875 27.589844 L 25.859375 27.589844 L 26.105469 28.128906 L 26.140625 28.128906 L 23.90625 28.128906 L 23.730469 27.589844 L 24.398438 27.589844 L 24.601562 28.128906 L 24.675781 28.128906 L 24.476562 27.589844 L 25.113281 27.589844 L 25.335938 28.128906 L 25.414062 28.128906 Z M 24.636719 26.445312 L 24.828125 26.902344 L 24.21875 26.902344 L 24.046875 26.445312 Z M 23.292969 26.273438 L 23.183594 25.949219 L 23.785156 25.949219 L 23.933594 26.34375 L 23.316406 26.34375 Z M 24.4375 27.488281 L 24.257812 27.003906 L 24.871094 27.003906 L 25.070312 27.488281 Z M 21.75 25.949219 L 21.847656 26.34375 L 21.230469 26.34375 L 21.148438 25.949219 Z M 21.34375 26.902344 L 21.25 26.445312 L 21.875 26.445312 L 21.988281 26.902344 Z M 20.550781 26.445312 L 21.175781 26.445312 L 21.269531 26.902344 L 20.628906 26.902344 Z M 23.109375 25.949219 L 23.238281 26.34375 L 22.621094 26.34375 L 22.507812 25.949219 Z M 22.0625 26.902344 L 21.949219 26.445312 L 22.574219 26.445312 L 22.707031 26.902344 Z M 22.429688 25.949219 L 22.542969 26.34375 L 21.925781 26.34375 L 21.828125 25.949219 Z M 19.175781 25.40625 L 19.148438 25.058594 L 19.605469 25.058594 L 19.648438 25.40625 Z M 18.523438 25.507812 L 19.109375 25.507812 L 19.136719 25.847656 L 18.539062 25.847656 Z M 18.542969 25.949219 L 19.144531 25.949219 L 19.175781 26.34375 L 18.558594 26.34375 Z M 19.183594 25.507812 L 19.660156 25.507812 L 19.699219 25.847656 L 19.210938 25.847656 Z M 19.722656 25.40625 L 19.683594 25.058594 L 20.25 25.058594 L 20.304688 25.40625 Z M 17.089844 26.34375 L 16.472656 26.34375 L 16.503906 25.949219 L 17.109375 25.949219 Z M 18.519531 25.40625 L 18.507812 25.058594 L 19.074219 25.058594 L 19.101562 25.40625 Z M 19.734375 25.507812 L 20.320312 25.507812 L 20.375 25.847656 L 19.777344 25.847656 Z M 17.785156 28.128906 L 17.863281 28.128906 L 17.863281 27.589844 L 18.535156 27.589844 L 18.554688 28.128906 L 18.632812 28.128906 L 18.609375 27.589844 L 19.28125 27.589844 L 19.324219 28.128906 L 19.402344 28.128906 L 19.355469 27.589844 L 19.917969 27.589844 L 19.984375 28.128906 L 20.0625 28.128906 L 19.996094 27.589844 L 20.664062 27.589844 L 20.753906 28.128906 L 20.832031 28.128906 L 20.742188 27.589844 L 21.410156 27.589844 L 21.523438 28.128906 L 21.601562 28.128906 L 21.488281 27.589844 L 22.15625 27.589844 L 22.292969 28.128906 L 22.367188 28.128906 L 22.234375 27.589844 L 22.90625 27.589844 L 23.0625 28.128906 L 23.136719 28.128906 L 22.980469 27.589844 L 23.652344 27.589844 L 23.832031 28.128906 L 11.824219 28.128906 L 12 27.589844 L 12.667969 27.589844 L 12.511719 28.128906 L 12.589844 28.128906 L 12.746094 27.589844 L 13.414062 27.589844 L 13.28125 28.128906 L 13.359375 28.128906 L 13.492188 27.589844 L 14.160156 27.589844 L 14.050781 28.128906 L 14.128906 28.128906 L 14.238281 27.589844 L 14.910156 27.589844 L 14.820312 28.128906 L 14.894531 28.128906 L 14.984375 27.589844 L 15.65625 27.589844 L 15.589844 28.128906 L 15.664062 28.128906 L 15.734375 27.589844 L 16.292969 27.589844 L 16.246094 28.128906 L 16.324219 28.128906 L 16.371094 27.589844 L 17.039062 27.589844 L 17.015625 28.128906 L 17.09375 28.128906 L 17.117188 27.589844 L 17.785156 27.589844 Z M 18.445312 25.40625 L 17.867188 25.40625 L 17.867188 25.058594 L 18.433594 25.058594 Z M 16.464844 26.445312 L 17.085938 26.445312 L 17.066406 26.902344 L 16.425781 26.902344 Z M 18.527344 27.488281 L 17.863281 27.488281 L 17.863281 27.003906 L 18.507812 27.003906 Z M 18.460938 25.847656 L 17.863281 25.847656 L 17.863281 25.507812 L 18.449219 25.507812 Z M 18.503906 26.902344 L 17.863281 26.902344 L 17.863281 26.445312 L 18.484375 26.445312 Z M 18.480469 26.34375 L 17.863281 26.34375 L 17.863281 25.949219 L 18.464844 25.949219 Z M 21.46875 27.488281 L 21.367188 27.003906 L 22.011719 27.003906 L 22.132812 27.488281 Z M 24.328125 25.507812 L 24.875 25.507812 L 25.039062 25.847656 L 24.46875 25.847656 Z M 24.945312 27.003906 L 25.585938 27.003906 L 25.585938 26.988281 L 25.8125 27.488281 L 25.148438 27.488281 Z M 24.511719 25.949219 L 25.085938 25.949219 L 25.277344 26.34375 L 24.671875 26.34375 Z M 24.714844 26.445312 L 25.324219 26.445312 L 25.542969 26.894531 L 25.546875 26.902344 L 24.90625 26.902344 Z M 22.210938 27.488281 L 22.089844 27.003906 L 22.734375 27.003906 L 22.875 27.488281 Z M 22.953125 27.488281 L 22.8125 27.003906 L 23.457031 27.003906 L 23.617188 27.488281 Z M 23.695312 27.488281 L 23.535156 27.003906 L 24.179688 27.003906 L 24.359375 27.488281 Z M 20.378906 25.40625 L 20.324219 25.058594 L 20.890625 25.058594 L 20.960938 25.40625 Z M 21.6875 25.40625 L 21.605469 25.058594 L 22.171875 25.058594 L 22.269531 25.40625 Z M 21.035156 25.40625 L 20.964844 25.058594 L 21.53125 25.058594 L 21.613281 25.40625 Z M 22.34375 25.40625 L 22.246094 25.058594 L 22.8125 25.058594 L 22.925781 25.40625 Z M 24.277344 25.40625 L 24.136719 25.058594 L 24.65625 25.058594 L 24.824219 25.40625 Z M 23.652344 25.40625 L 23.527344 25.058594 L 24.0625 25.058594 L 24.203125 25.40625 Z M 23 25.40625 L 22.886719 25.058594 L 23.453125 25.058594 L 23.578125 25.40625 Z M 8.539062 30.582031 L 27.191406 30.582031 L 27.191406 29.378906 L 8.539062 29.378906 Z M 25.859375 8.480469 C 25.859375 8.027344 25.492188 7.660156 25.039062 7.660156 L 10.691406 7.660156 C 10.238281 7.660156 9.871094 8.027344 9.871094 8.480469 L 9.871094 20.257812 C 9.871094 20.714844 10.238281 21.082031 10.691406 21.082031 L 25.039062 21.082031 C 25.492188 21.082031 25.859375 20.714844 25.859375 20.257812 Z M 26.984375 8.480469 L 26.984375 20.257812 C 26.984375 21.335938 26.113281 22.207031 25.039062 22.207031 L 10.691406 22.207031 C 9.617188 22.207031 8.742188 21.335938 8.742188 20.257812 L 8.742188 8.480469 C 8.742188 7.40625 9.617188 6.535156 10.691406 6.535156 L 25.039062 6.535156 C 26.113281 6.535156 26.984375 7.40625 26.984375 8.480469 Z M 15.058594 22.359375 L 20.667969 22.359375 L 20.667969 23.183594 L 15.058594 23.183594 L 15.058594 22.359375 "/>
<g clip-path="url(#clip5)" clip-rule="nonzero">
<g clip-path="url(#clip6)" clip-rule="nonzero">
<g clip-path="url(#clip7)" clip-rule="nonzero">
<g clip-path="url(#clip8)" clip-rule="nonzero">
<path style=" stroke:none;fill-rule:nonzero;fill:url(#linear1);" d="M 30.761719 18.269531 L 18.269531 30.761719 L 30.761719 43.25 L 43.25 30.761719 Z M 30.761719 18.269531 "/>
</g>
</g>
</g>
</g>
</g>
</svg>
